<mxfile host="app.diagrams.net" modified="2024-03-04T12:47:22.001Z" agent="Mozilla/5.0 (Windows NT 10.0; Win64; x64) AppleWebKit/537.36 (KHTML, like Gecko) Chrome/122.0.0.0 Safari/537.36" version="24.0.1" etag="lQQp0bgprxYsr2wAg8zu" type="github">
  <diagram name="PÃ¡gina-1" id="hK8rsxZ9e9RMdi0WH0Cq">
    <mxGraphModel>
      <root>
        <mxCell id="0" />
        <mxCell id="1" parent="0" />
      </root>
    </mxGraphModel>
  </diagram>
</mxfile>
